<svg id="Layer_3" data-name="Layer 3" xmlns="http://www.w3.org/2000/svg" viewBox="0 0 1125 836"><defs><style>.cls-1,.cls-2{fill:#ffda00;}.cls-2{opacity:0.26;}.cls-3,.cls-4{fill:#3c91e6;}.cls-4{opacity:0.33;}</style></defs><title>login-bg</title><path class="cls-1" d="M1125-8V691.66a465.37,465.37,0,0,1-197,43.45c-241.2,0-439.71-182.82-464.49-417.45A468.2,468.2,0,0,1,460.89,268c0-2.11,0-4.22.05-6.32A464.9,464.9,0,0,1,551.11-8Z" transform="translate(0 8)"/><path class="cls-2" d="M1125-8V792.36A558.64,558.64,0,0,1,928,828c-281.4,0-514.33-207.56-554-477.94q-3.62-24.65-5.07-50-.9-15.93-.9-32.1A557.36,557.36,0,0,1,440.64-8Z" transform="translate(0 8)"/><path class="cls-3" d="M604.15,3c0,109-57.19,204.71-143.21,258.68a303.3,303.3,0,0,1-92,38.42,305.48,305.48,0,0,1-69.9,8c-147.55,0-270.64-104.72-299-243.9V-8H604Q604.15-2.52,604.15,3Z" transform="translate(0 8)"/><path class="cls-4" d="M653.82-8H0V194.45C63.11,292.82,173.45,358,299,358a356.12,356.12,0,0,0,75-7.94,352.23,352.23,0,0,0,89.54-32.4C576.74,258.34,654,139.69,654,3Q654-2.52,653.82-8Z" transform="translate(0 8)"/></svg>