<svg id="Layer_1" data-name="Layer 1" xmlns="http://www.w3.org/2000/svg" viewBox="0 0 494.68 200.14"><title>logo</title><path d="M24.68,294a27.83,27.83,0,0,1-12-10,26.39,26.39,0,0,1-4.22-14.84,27.89,27.89,0,0,1,3-13A24,24,0,0,1,19.58,247a19.88,19.88,0,0,1,11.27-3.41,15.84,15.84,0,0,1,9.57,2.84,12.25,12.25,0,0,1,4.86,7.87q-8.43,0-13.46,4.46t-5,12.08q0,7,4.22,11.19t11.19,4.22a18.94,18.94,0,0,0,14.19-5.76A19.93,19.93,0,0,0,62,265.94a27,27,0,0,0-4.22-14.44A135.52,135.52,0,0,0,45.12,235,139.71,139.71,0,0,1,31.9,217.68a29.52,29.52,0,0,1-4.46-15.81,25.85,25.85,0,0,1,4.71-15.17,32.07,32.07,0,0,1,13-10.62,43.22,43.22,0,0,1,18.65-3.9q13.14,0,21,6.17a19.94,19.94,0,0,1,7.87,16.54q0,6.81-3.41,11a10.93,10.93,0,0,1-8.92,4.22,11.75,11.75,0,0,1-9.9-5,15.63,15.63,0,0,0,4.87-6,17.83,17.83,0,0,0,1.78-7.79A11.16,11.16,0,0,0,74,183.05,11.39,11.39,0,0,0,65.56,180a13.62,13.62,0,0,0-10.63,4.62,17,17,0,0,0-4.13,11.76,21.35,21.35,0,0,0,3.73,12.09,132.26,132.26,0,0,0,11.68,14.35q6.48,7,10.46,12a51.65,51.65,0,0,1,6.81,11.6,35.43,35.43,0,0,1,2.84,14.19,32.62,32.62,0,0,1-5.76,18.82,39.69,39.69,0,0,1-15.73,13.3,49.87,49.87,0,0,1-22.14,4.86A43,43,0,0,1,24.68,294Z" transform="translate(-8.46 -135.51)"/><path d="M107.73,208h23.36l-2.6,12.16a28.25,28.25,0,0,1,19-7q9.08,0,14.43,6t5.36,19.63a94.08,94.08,0,0,1-3.73,25.87,51.63,51.63,0,0,1-12.66,22.22q-8.91,9.16-23.52,9.16-10.38,0-13.78-5.84l-8.44,39.58-24.49,5.84Zm27.49,66.21a49.63,49.63,0,0,0,7.46-17.44A83.8,83.8,0,0,0,145,237.88q0-13.47-8.11-13.47a10.34,10.34,0,0,0-5.92,2.11,19.26,19.26,0,0,0-5.27,5.84l-9.57,45.42c.87,2.48,2.92,3.73,6.17,3.73Q130.12,281.51,135.22,274.21Z" transform="translate(-8.46 -135.51)"/><path d="M175.4,289.65q-6.15-6.31-6.15-19.76A73.9,73.9,0,0,1,174,244.7a58,58,0,0,1,14.25-22.36,31.41,31.41,0,0,1,22.6-9.15q6.65,0,9.88,2.27a7,7,0,0,1,3.24,6v1.14l1.78-8.59h23.33l-11.66,55.08a19.71,19.71,0,0,0-.65,5.18q0,7,6.64,7,4.53,0,7.86-4.21a31.86,31.86,0,0,0,5.26-11h6.8q-6,17.49-14.82,23.73T230.8,296q-6.8,0-10.93-3.81c-2.75-2.53-4.4-6.24-4.94-11.1a45.58,45.58,0,0,1-10.45,10.78A22.87,22.87,0,0,1,190.79,296,20.63,20.63,0,0,1,175.4,289.65Zm33.94-13.58a20,20,0,0,0,5.44-10.46L222.56,229a6.58,6.58,0,0,0-1.62-4.13,6.06,6.06,0,0,0-5-2q-6.48,0-11.68,7.54a59.63,59.63,0,0,0-8.1,18.17,71.7,71.7,0,0,0-2.92,18.73q0,8.11,2.35,10.38a7.93,7.93,0,0,0,5.76,2.27Q205.37,279.88,209.34,276.07Z" transform="translate(-8.46 -135.51)"/><path d="M259.92,291.37q-4.83-4.9-4.83-14.73A56.21,56.21,0,0,1,256.4,266l9.82-46H262.5l1.2-6h4.95l4.5-20.7,22.2-3-5.1,23.7h9l-1.2,6h-8.26l-10.47,49.11a20.11,20.11,0,0,0-.66,5.24c0,2.18.52,3.74,1.56,4.66s2.75,1.4,5.15,1.4q4.75,0,8.84-4A22.84,22.84,0,0,0,300.1,266H307q-6.06,17.69-15.55,24t-18.83,6.3Q264.74,296.28,259.92,291.37Z" transform="translate(-8.46 -135.51)"/><path d="M303.47,291.11q-4.79-4.86-4.78-14.58A55.73,55.73,0,0,1,300,266l11-52h23.33l-11.67,55.08a23.46,23.46,0,0,0-.48,4.53q0,6.64,4.86,6.65a9.88,9.88,0,0,0,7.77-3.81A28.28,28.28,0,0,0,340,266l11-52h23.33l-11.66,55.08a19.71,19.71,0,0,0-.65,5.18q0,3.24,1.54,4.62t5.1,1.38a10.07,10.07,0,0,0,7.86-3.89A28.27,28.27,0,0,0,381.79,266h6.8q-6,17.49-14.82,23.73T356,296q-7,0-11.09-3.89T340,280.58q-5.52,8.91-11.59,12.15A26,26,0,0,1,316,296Q308.25,296,303.47,291.11Z" transform="translate(-8.46 -135.51)"/><path d="M425.25,266a26.35,26.35,0,0,1-2.09,5.26,20.58,20.58,0,0,1-3.77,5.1,12.44,12.44,0,0,1-8.81,4c-2.4,0-4.12-.45-5.14-1.37s-1.55-2.48-1.55-4.66a20,20,0,0,1,.65-5.22l16.36-76.79,2.29-10.81.11-.5h0l-7,.95-.24,1.3a1.77,1.77,0,0,1-2.07,1.42l-3.31-.61a1.79,1.79,0,0,1-1.36-1.17l-10.17,1.37-.87,4.05L381.7,266a56,56,0,0,0-1.31,10.6,31.72,31.72,0,0,0,.47,5.63,16.69,16.69,0,0,0,4.35,9.06q4.8,4.9,12.64,4.9,9.3,0,18.76-6.29a30.06,30.06,0,0,0,8.06-8.3,64.85,64.85,0,0,0,7.44-15.6Z" transform="translate(-8.46 -135.51)"/><path d="M429.34,289.75q-6.16-6.33-6.16-19.79A74.06,74.06,0,0,1,428,244.74a58,58,0,0,1,14.28-22.39,31.45,31.45,0,0,1,22.62-9.16q6.64,0,9.9,2.27a7,7,0,0,1,3.24,6v1.14l1.78-8.6h23.36l-11.68,55.15a20.16,20.16,0,0,0-.65,5.19c0,2.16.52,3.7,1.54,4.62s2.73,1.38,5.11,1.38a8.1,8.1,0,0,0,3.57-.65q-3.57,9.09-6.81,12.73t-9.41,3.65a14.89,14.89,0,0,1-10.78-4q-4.14-4-5.11-11.11-9.9,15.08-24.17,15.08A20.66,20.66,0,0,1,429.34,289.75Zm33.84-13.68a20,20,0,0,0,5.44-10.46L476.4,229a6.58,6.58,0,0,0-1.62-4.13,6.06,6.06,0,0,0-5-2q-6.5,0-11.68,7.54A59.88,59.88,0,0,0,450,248.5,72.12,72.12,0,0,0,447,267.23q0,8.11,2.35,10.38a8,8,0,0,0,5.76,2.27Q459.2,279.88,463.18,276.07Z" transform="translate(-8.46 -135.51)"/><path d="M441.16,142.5l-40.83-6.91a5.65,5.65,0,0,0-6.55,4.85l-5.28,40.72a5.65,5.65,0,0,0,4.62,6.3l5.21.92,22.48,4,7.11,1.26a5.66,5.66,0,0,0,6.43-4l11.31-40A5.66,5.66,0,0,0,441.16,142.5Zm-44.1,39.62a1.77,1.77,0,0,1-1.42-2.07l6.77-36.35a1.76,1.76,0,0,1,2.06-1.42l3.29.61a1.77,1.77,0,0,1,1.42,2.07l-6.77,36.36a1.77,1.77,0,0,1-2.07,1.41ZM416,183.34a1.77,1.77,0,0,1-2.07,1.42l-3.28-.61A1.78,1.78,0,0,1,409.3,183a1.75,1.75,0,0,1-.07-.91L416,145.72a1.77,1.77,0,0,1,2.07-1.42l3.28.61a1.78,1.78,0,0,1,1.42,2.07l-6.53,35.07ZM436.17,149l-6.77,36.36a1.78,1.78,0,0,1-2.07,1.42l-3.28-.62a1.76,1.76,0,0,1-1.42-2.06l.46-2.49.1-.5,6.21-33.37a1.77,1.77,0,0,1,2.07-1.42l3.28.61A1.78,1.78,0,0,1,436.17,149Z" transform="translate(-8.46 -135.51)"/></svg>